<mxfile host="65bd71144e">
    <diagram id="3tOAd-FZpRMhtWBeyw0o" name="ページ1">
        <mxGraphModel dx="522" dy="569" grid="1" gridSize="10" guides="1" tooltips="1" connect="1" arrows="1" fold="1" page="1" pageScale="1" pageWidth="583" pageHeight="413" math="0" shadow="0">
            <root>
                <mxCell id="0"/>
                <mxCell id="1" parent="0"/>
                <mxCell id="2" value="&lt;font style=&quot;&quot;&gt;&lt;b style=&quot;&quot;&gt;&lt;span style=&quot;font-size: 16px;&quot;&gt;対話的な環境構築&amp;nbsp; &lt;/span&gt;&lt;font style=&quot;font-size: 18px;&quot;&gt;in&amp;nbsp; fedora&lt;/font&gt;&lt;/b&gt;&lt;/font&gt;" style="text;html=1;strokeColor=none;fillColor=none;align=left;verticalAlign=middle;whiteSpace=wrap;rounded=0;fontFamily=Noto Sans JP;fontSource=https%3A%2F%2Ffonts.googleapis.com%2Fcss%3Ffamily%3DNoto%2BSans%2BJP;" parent="1" vertex="1">
                    <mxGeometry x="10" y="10" width="220" height="30" as="geometry"/>
                </mxCell>
                <mxCell id="3" value="&lt;b style=&quot;&quot;&gt;&lt;font style=&quot;font-size: 18px;&quot;&gt;Dockerfile&lt;/font&gt;&lt;/b&gt;" style="text;html=1;strokeColor=none;fillColor=none;align=left;verticalAlign=middle;whiteSpace=wrap;rounded=0;fontFamily=Noto Sans JP;fontSource=https%3A%2F%2Ffonts.googleapis.com%2Fcss%3Ffamily%3DNoto%2BSans%2BJP;" parent="1" vertex="1">
                    <mxGeometry x="10" y="190" width="90" height="30" as="geometry"/>
                </mxCell>
                <mxCell id="5" value="&lt;div style=&quot;font-family: Menlo, Monaco, &amp;quot;Courier New&amp;quot;, monospace; line-height: 18px;&quot;&gt;&lt;font color=&quot;#2e2e2e&quot; style=&quot;font-size: 18px;&quot;&gt;&lt;b&gt;cd root&lt;/b&gt;&lt;/font&gt;&lt;/div&gt;" style="text;html=1;strokeColor=#66B2FF;fillColor=none;align=left;verticalAlign=middle;whiteSpace=wrap;rounded=0;fontSize=18;fontFamily=Noto Sans JP;fontSource=https%3A%2F%2Ffonts.googleapis.com%2Fcss%3Ffamily%3DNoto%2BSans%2BJP;" parent="1" vertex="1">
                    <mxGeometry x="20" y="40" width="430" height="30" as="geometry"/>
                </mxCell>
                <mxCell id="6" value="&lt;div style=&quot;font-family: Menlo, Monaco, &amp;quot;Courier New&amp;quot;, monospace; line-height: 18px;&quot;&gt;&lt;font color=&quot;#2e2e2e&quot; style=&quot;font-size: 18px;&quot;&gt;&lt;b&gt;export URL=http://example.com&lt;/b&gt;&lt;/font&gt;&lt;/div&gt;" style="text;html=1;strokeColor=#66B2FF;fillColor=none;align=left;verticalAlign=middle;whiteSpace=wrap;rounded=0;fontSize=18;fontFamily=Noto Sans JP;fontSource=https%3A%2F%2Ffonts.googleapis.com%2Fcss%3Ffamily%3DNoto%2BSans%2BJP;" parent="1" vertex="1">
                    <mxGeometry x="20" y="72" width="430" height="30" as="geometry"/>
                </mxCell>
                <mxCell id="7" value="&lt;div style=&quot;font-family: Menlo, Monaco, &amp;quot;Courier New&amp;quot;, monospace; line-height: 18px;&quot;&gt;&lt;font color=&quot;#2e2e2e&quot; style=&quot;font-size: 18px;&quot;&gt;&lt;b&gt;URL=http://example.com/man.tar.gz&lt;/b&gt;&lt;/font&gt;&lt;/div&gt;" style="text;html=1;strokeColor=#66B2FF;fillColor=none;align=left;verticalAlign=middle;whiteSpace=wrap;rounded=0;fontSize=18;fontFamily=Noto Sans JP;fontSource=https%3A%2F%2Ffonts.googleapis.com%2Fcss%3Ffamily%3DNoto%2BSans%2BJP;" parent="1" vertex="1">
                    <mxGeometry x="20" y="104" width="430" height="30" as="geometry"/>
                </mxCell>
                <mxCell id="10" value="&lt;div style=&quot;font-family: Menlo, Monaco, &amp;quot;Courier New&amp;quot;, monospace; line-height: 18px;&quot;&gt;&lt;font color=&quot;#2e2e2e&quot;&gt;&lt;b&gt;curl -LO &quot;${URL}&quot;; ls | grep -F tar.gz&lt;/b&gt;&lt;/font&gt;&lt;/div&gt;" style="text;html=1;strokeColor=#66B2FF;fillColor=none;align=left;verticalAlign=middle;whiteSpace=wrap;rounded=0;fontSize=18;fontFamily=Noto Sans JP;fontSource=https%3A%2F%2Ffonts.googleapis.com%2Fcss%3Ffamily%3DNoto%2BSans%2BJP;" parent="1" vertex="1">
                    <mxGeometry x="20" y="136" width="430" height="30" as="geometry"/>
                </mxCell>
                <mxCell id="15" value="" style="shape=flexArrow;endArrow=classic;html=1;fontSize=15;fontColor=#2E2E2E;fillColor=#d5e8d4;strokeColor=#82b366;width=12;endWidth=17.77777777777778;endSize=4.588888888888889;fontFamily=Noto Sans JP;fontSource=https%3A%2F%2Ffonts.googleapis.com%2Fcss%3Ffamily%3DNoto%2BSans%2BJP;" parent="1" edge="1">
                    <mxGeometry width="50" height="50" relative="1" as="geometry">
                        <mxPoint x="220" y="176.5" as="sourcePoint"/>
                        <mxPoint x="220" y="206.5" as="targetPoint"/>
                    </mxGeometry>
                </mxCell>
                <mxCell id="17" value="&lt;font color=&quot;#000000&quot; style=&quot;font-size: 16px;&quot;&gt;&lt;b style=&quot;&quot;&gt;自動的に&lt;/b&gt;&lt;/font&gt;" style="text;html=1;strokeColor=none;fillColor=none;align=center;verticalAlign=middle;whiteSpace=wrap;rounded=0;labelBackgroundColor=none;fontSize=18;fontColor=#2E2E2E;fontFamily=Noto Sans JP;fontSource=https%3A%2F%2Ffonts.googleapis.com%2Fcss%3Ffamily%3DNoto%2BSans%2BJP;" parent="1" vertex="1">
                    <mxGeometry x="240" y="180" width="70" height="17" as="geometry"/>
                </mxCell>
                <mxCell id="21" value="&lt;div style=&quot;background-color: rgb(30, 30, 30); font-family: Menlo, Monaco, &amp;quot;Courier New&amp;quot;, monospace; line-height: 18px; font-size: 18px;&quot;&gt;&lt;div style=&quot;color: rgb(212, 212, 212);&quot;&gt;&lt;span style=&quot;color: #c586c0;&quot;&gt;FROM&lt;/span&gt; &lt;span style=&quot;color: #4ec9b0;&quot;&gt;fedora&lt;/span&gt;:&lt;span style=&quot;color: #9cdcfe;&quot;&gt;latest&lt;/span&gt;&lt;/div&gt;&lt;div style=&quot;color: rgb(212, 212, 212);&quot;&gt;&lt;span style=&quot;color: #c586c0;&quot;&gt;WORKDIR&lt;/span&gt; &lt;span style=&quot;color: #9cdcfe;&quot;&gt;/&lt;/span&gt;&lt;/div&gt;&lt;div style=&quot;color: rgb(212, 212, 212);&quot;&gt;&lt;span style=&quot;color: #c586c0;&quot;&gt;SHELL&lt;/span&gt; &lt;span style=&quot;color: #9cdcfe;&quot;&gt;[&lt;/span&gt; &lt;span style=&quot;color: #ce9178;&quot;&gt;&quot;/bin/bash&quot;&lt;/span&gt;&lt;span style=&quot;color: #9cdcfe;&quot;&gt;,&lt;/span&gt; &lt;span style=&quot;color: #ce9178;&quot;&gt;&quot;--posix&quot;&lt;/span&gt;&lt;span style=&quot;color: #9cdcfe;&quot;&gt;,&lt;/span&gt; &lt;span style=&quot;color: #ce9178;&quot;&gt;&quot;-c&quot;&lt;/span&gt; &lt;span style=&quot;color: #9cdcfe;&quot;&gt;]&lt;/span&gt;&lt;/div&gt;&lt;div style=&quot;color: rgb(212, 212, 212);&quot;&gt;&lt;span style=&quot;color: #c586c0;&quot;&gt;WORKDIR&lt;/span&gt; &lt;span style=&quot;color: #9cdcfe;&quot;&gt;root&lt;/span&gt;&lt;/div&gt;&lt;div style=&quot;&quot;&gt;&lt;span style=&quot;color: rgb(197, 134, 192);&quot;&gt;ENV&lt;/span&gt;&lt;font color=&quot;#d4d4d4&quot;&gt;&amp;nbsp;&lt;/font&gt;&lt;font color=&quot;#9cdcfe&quot;&gt;URL=http://example.com&lt;/font&gt;&lt;/div&gt;&lt;div style=&quot;color: rgb(212, 212, 212);&quot;&gt;&lt;span style=&quot;color: #c586c0;&quot;&gt;ARG&lt;/span&gt; &lt;span style=&quot;color: #9cdcfe;&quot;&gt;URL&lt;/span&gt;=&lt;span style=&quot;color: #9cdcfe;&quot;&gt;http://example.com/man.tar.gz&lt;/span&gt;&lt;/div&gt;&lt;div style=&quot;color: rgb(212, 212, 212);&quot;&gt;&lt;span style=&quot;color: #c586c0;&quot;&gt;RUN&lt;/span&gt; &lt;span style=&quot;color: #9cdcfe;&quot;&gt;curl&lt;/span&gt; &lt;span style=&quot;color: #9cdcfe;&quot;&gt;-LO&lt;/span&gt; &lt;span style=&quot;color: #ce9178;&quot;&gt;&quot;&lt;/span&gt;&lt;span style=&quot;color: #9cdcfe;&quot;&gt;${URL}&lt;/span&gt;&lt;span style=&quot;color: #ce9178;&quot;&gt;&quot;&lt;/span&gt;&lt;/div&gt;&lt;/div&gt;" style="text;html=1;strokeColor=none;fillColor=none;align=left;verticalAlign=middle;whiteSpace=wrap;rounded=0;labelBackgroundColor=none;fontSize=14;fontColor=#000000;fontFamily=Noto Sans JP;fontSource=https%3A%2F%2Ffonts.googleapis.com%2Fcss%3Ffamily%3DNoto%2BSans%2BJP;" parent="1" vertex="1">
                    <mxGeometry x="30" y="220" width="420" height="130" as="geometry"/>
                </mxCell>
            </root>
        </mxGraphModel>
    </diagram>
</mxfile>